<svg xmlns="http://www.w3.org/2000/svg" xmlns:xlink="http://www.w3.org/1999/xlink" width="500" zoomAndPan="magnify" viewBox="0 0 375 374.999991" height="500" preserveAspectRatio="xMidYMid meet" version="1.0"><path fill="#ffffff" d="M 293.921875 129.285156 L 170.261719 269.03125 C 167.09375 272.613281 162.601562 274.75 157.820312 274.949219 C 157.578125 274.960938 157.332031 274.964844 157.089844 274.964844 C 152.570312 274.964844 148.210938 273.226562 144.929688 270.089844 L 82.097656 210.019531 C 75.070312 203.304688 74.820312 192.167969 81.535156 185.144531 C 88.25 178.121094 99.386719 177.871094 106.410156 184.585938 L 156.027344 232.019531 L 267.570312 105.96875 C 274.011719 98.691406 285.128906 98.011719 292.40625 104.453125 C 299.683594 110.890625 300.363281 122.011719 293.921875 129.285156 " fill-opacity="1" fill-rule="nonzero"/><path fill="#39b54a" d="M 293.921875 129.289062 L 170.261719 269.03125 C 167.089844 272.613281 162.601562 274.75 157.820312 274.949219 C 157.578125 274.960938 157.332031 274.964844 157.085938 274.964844 C 152.570312 274.964844 148.210938 273.226562 144.929688 270.089844 L 82.097656 210.019531 C 75.070312 203.300781 74.820312 192.167969 81.535156 185.144531 C 88.253906 178.121094 99.386719 177.871094 106.410156 184.585938 L 156.027344 232.019531 L 267.574219 105.964844 C 274.011719 98.691406 285.132812 98.015625 292.40625 104.453125 C 299.683594 110.890625 300.363281 122.007812 293.921875 129.289062 Z M 360.257812 114.507812 C 350.8125 92.183594 337.296875 72.132812 320.082031 54.917969 C 302.867188 37.703125 282.816406 24.1875 260.488281 14.742188 C 237.359375 4.957031 212.804688 0 187.5 0 C 162.195312 0 137.640625 4.957031 114.507812 14.742188 C 92.183594 24.1875 72.132812 37.703125 54.917969 54.917969 C 37.703125 72.132812 24.1875 92.183594 14.742188 114.507812 C 4.957031 137.640625 0 162.195312 0 187.5 C 0 212.804688 4.957031 237.359375 14.742188 260.488281 C 24.1875 282.816406 37.703125 302.867188 54.917969 320.082031 C 72.132812 337.296875 92.183594 350.8125 114.507812 360.257812 C 137.640625 370.042969 162.195312 375 187.5 375 C 212.804688 375 237.359375 370.042969 260.488281 360.257812 C 282.816406 350.8125 302.867188 337.296875 320.082031 320.082031 C 337.296875 302.867188 350.8125 282.816406 360.257812 260.488281 C 370.042969 237.359375 375 212.804688 375 187.5 C 375 162.195312 370.042969 137.640625 360.257812 114.507812 " fill-opacity="1" fill-rule="nonzero"/><path fill="#ffffff" d="M 293.921875 129.289062 L 170.261719 269.03125 C 167.089844 272.613281 162.601562 274.75 157.820312 274.949219 C 157.578125 274.960938 157.332031 274.964844 157.085938 274.964844 C 152.570312 274.964844 148.210938 273.226562 144.929688 270.089844 L 82.097656 210.019531 C 75.070312 203.300781 74.820312 192.167969 81.535156 185.144531 C 88.253906 178.121094 99.386719 177.871094 106.410156 184.585938 L 156.027344 232.019531 L 267.574219 105.964844 C 274.011719 98.691406 285.132812 98.015625 292.40625 104.453125 C 299.683594 110.890625 300.363281 122.007812 293.921875 129.289062 " fill-opacity="1" fill-rule="nonzero"/></svg>